<?xml version="1.0" encoding="UTF-8"?>
<!DOCTYPE svg PUBLIC "-//W3C//DTD SVG 1.1//EN" "http://www.w3.org/Graphics/SVG/1.1/DTD/svg11.dtd">
<!-- Creator: CorelDRAW -->
<svg xmlns="http://www.w3.org/2000/svg" xml:space="preserve" width="2480px" height="2480px" version="1.1" style="shape-rendering:geometricPrecision; text-rendering:geometricPrecision; image-rendering:optimizeQuality; fill-rule:evenodd; clip-rule:evenodd"
viewBox="0 0 2480 2480"
 xmlns:xlink="http://www.w3.org/1999/xlink"
 xmlns:xodm="http://www.corel.com/coreldraw/odm/2003">
 <defs>
  <style type="text/css">
   <![CDATA[
    .str0 {stroke:#FC544B;stroke-width:2.36;stroke-miterlimit:22.9256}
    .fil0 {fill:#FC544B}
   ]]>
  </style>
 </defs>
 <g id="Camada_x0020_1">
  <metadata id="CorelCorpID_0Corel-Layer"/>
  <g id="_2900554327088">
   <path class="fil0 str0" d="M636.77 1272.09c-59.26,-19.35 -115.44,-37.02 -174.78,-55.45 -33.47,-10.4 -145.38,-50.27 -173.06,-51.62l23.37 301.38c50.71,28.8 114.73,40.31 160.5,77.89 102.99,84.54 117.98,220.02 30.29,327.27 -49.24,60.22 -98.2,63.94 -151.63,82.62l14.61 183.74 775.15 291.74 -16.4 -1001.98c-2.19,-1.17 -452.18,-143.88 -488.05,-155.59z"/>
   <path class="fil0 str0" d="M1356.53 1425.86l-18.9 1005.6 774.93 -293.49 12.56 -183.92c-37.74,-13.68 -53.12,-11.69 -88.17,-31.89 -27.47,-15.84 -46.74,-32.09 -63.85,-53.05 -35.93,-44 -64.14,-102.22 -52.59,-180.46 24,-162.57 174.02,-181.18 245,-222.32l23.6 -301.37c-25.91,1.43 -314.15,96.4 -363.65,112.16l-468.93 148.74z"/>
   <path class="fil0 str0" d="M478.02 1120.77c14.04,11.69 319.72,111.51 367.69,127.48l275.95 93.18c30.02,10.12 215.15,9.19 240.45,1.04l638.12 -221.68c-81.53,-39.81 -179.69,-77.26 -270.99,-107.77 -117.88,-39.4 -187.05,-52.87 -323.36,-52.87l-333.51 0c-139.15,0 -206.24,14.05 -326.79,54.05 -91.37,30.33 -186.99,67.54 -267.56,106.57z"/>
   <path class="fil0 str0" d="M253.66 1338.92c-12.64,0.42 -12.98,6.19 -29.03,24.25l-112.08 117.77c-10.16,11.56 -16.29,20.37 -27.27,31.43 -40.18,40.45 -84.25,82.1 -86.04,144.17 -3.27,113.54 92.19,143.25 164.86,173.86 52.67,22.18 114.36,56.56 180.54,44.39 148.27,-27.26 167.28,-202.44 76.1,-269.63 -36,-26.54 -107.24,-51.27 -154.53,-70.62l-12.55 -195.62z"/>
   <path class="fil0 str0" d="M2211.88 1534.6c-47.53,19.07 -122.36,45.87 -156.97,72.49 -89.11,68.56 -66.91,244.53 82.46,268.37 64.37,10.26 125.34,-23.39 176.78,-45.06 73.19,-30.82 174.27,-63.16 164.33,-182.73 -3.5,-42.08 -15.85,-52.71 -34.53,-78.11 -29.5,-40.15 -75.59,-82.12 -109.4,-120.51 -18.86,-21.42 -31.18,-36.38 -54.71,-58l-41.3 -44.67c-8.94,-8.23 -2.59,-7.07 -13.64,-7.43l-13.02 195.65 0 0z"/>
   <polygon class="fil0 str0" points="1189.61,2440.28 1290.58,2438.02 1307.6,1426.08 1171.96,1426.79 "/>
   <circle class="fil0 str0" cx="1228.44" cy="475.38" r="433.97"/>
  </g>
 </g>
</svg>
