<?xml version="1.0" encoding="UTF-8"?>
<!DOCTYPE svg PUBLIC "-//W3C//DTD SVG 1.1//EN" "http://www.w3.org/Graphics/SVG/1.1/DTD/svg11.dtd">
<!-- Creator: CorelDRAW 2020 (64 Bit) -->
<svg xmlns="http://www.w3.org/2000/svg" xml:space="preserve" width="47.413mm" height="47.4131mm" version="1.1" style="shape-rendering:geometricPrecision; text-rendering:geometricPrecision; image-rendering:optimizeQuality; fill-rule:evenodd; clip-rule:evenodd"
viewBox="0 0 4742.78 4742.79"
 xmlns:xlink="http://www.w3.org/1999/xlink"
 xmlns:xodm="http://www.corel.com/coreldraw/odm/2003">
 <defs>
  <style type="text/css">
   <![CDATA[
    .fil0 {fill:#FFA426;fill-rule:nonzero}
   ]]>
  </style>
 </defs>
 <g id="Camada_x0020_1">
  <metadata id="CorelCorpID_0Corel-Layer"/>
  <path class="fil0" d="M4234.62 0l-3726.47 0c-280.59,0 -508.15,227.56 -508.15,508.16l0 3726.48c0,280.58 227.56,508.14 508.16,508.14l3726.46 0.01c280.6,-0.01 508.16,-227.57 508.16,-508.17l0 -3726.46c0,-280.6 -227.56,-508.16 -508.16,-508.16zm-486.99 4065.26c-1682.66,-194.29 -3070.1,-1373.2 -3070.1,-3070.12 2.58,-72.99 52.58,-135.79 123.13,-154.67l688.13 -158.8c11.72,-2.47 23.71,-3.86 35.68,-4.12 62.51,3.13 118.45,40.02 145.98,96.23l317.6 741.06c7.75,19.93 12.12,41.16 12.82,62.56 -2.56,46.98 -23.51,91.17 -58.22,122.92l-401.13 328.18c242.73,514.88 657.87,930.02 1172.8,1172.81l328.18 -401.13c31.7,-34.77 75.88,-55.72 122.87,-58.29 21.41,0.68 42.6,5.04 62.56,12.81l741.06 317.6c56.23,27.5 93.79,83.46 96.24,146 0.46,11.96 0.17,24.54 -4.13,35.69 -124.97,323.41 -217.51,557.99 -284.48,724.6 -259.67,645.87 181.53,110.97 -29,86.67z"/>
 </g>
</svg>
