<?xml version="1.0" encoding="UTF-8"?>
<!DOCTYPE svg PUBLIC "-//W3C//DTD SVG 1.1//EN" "http://www.w3.org/Graphics/SVG/1.1/DTD/svg11.dtd">
<!-- Creator: CorelDRAW 2020 (64 Bit) -->
<svg xmlns="http://www.w3.org/2000/svg" xml:space="preserve" width="54.1866mm" height="43.3493mm" version="1.1" style="shape-rendering:geometricPrecision; text-rendering:geometricPrecision; image-rendering:optimizeQuality; fill-rule:evenodd; clip-rule:evenodd"
viewBox="0 0 6740.16 5392.13"
 xmlns:xlink="http://www.w3.org/1999/xlink"
 xmlns:xodm="http://www.corel.com/coreldraw/odm/2003"
 aria-hidden="true"
 focusable="false"
 data-prefix="fas"
 data-icon="user-clock"
 role="img">
 <defs>
  <style type="text/css">
   <![CDATA[
    .fil0 {fill:#66BB6A;fill-rule:nonzero}
   ]]>
  </style>
 </defs>
 <g id="Camada_x0020_1">
  <metadata id="CorelCorpID_0Corel-Layer"/>
  <g id="user-clock-solid.svg">
   <path class="fil0" d="M5223.62 2359.05c-838.31,0 -1516.54,678.22 -1516.54,1516.54 0,838.31 678.22,1516.54 1516.54,1516.54 838.31,0 1516.54,-678.22 1516.54,-1516.54 0,-838.31 -678.22,-1516.54 -1516.54,-1516.54zm674.02 1582.89c0,55.81 -46.33,102.16 -102.16,102.16l-638.21 -0.01c-55.81,0 -102.16,-46.33 -102.16,-102.16l0 -806.72c0,-55.81 46.33,-102.16 102.16,-102.16l132.7 0.01c55.81,0 102.16,46.33 102.16,102.16l0 571.86 403.35 0c55.81,0 102.16,46.33 102.16,102.16l0 132.7zm-2527.56 -66.35c0,-292.77 70.57,-569.76 191.67,-816.2 -84.25,-15.8 -170.61,-26.33 -259.08,-26.33l-175.87 0c-233.8,107.42 -493.93,168.51 -767.75,168.51 -273.82,0 -532.89,-61.09 -767.75,-168.51l-175.87 0c-781.44,0 -1415.43,634.01 -1415.43,1415.43l0 438.11c0,279.09 226.42,505.51 505.51,505.51l3655.49 0c-477.08,-335.96 -790.92,-889.91 -790.92,-1516.54l0 0.01zm-1011.02 -1179.53c744.57,0 1348.03,-603.46 1348.03,-1348.03 0,-744.57 -603.46,-1348.03 -1348.03,-1348.03 -744.57,0 -1348.03,603.46 -1348.03,1348.03 0,744.57 603.46,1348.03 1348.03,1348.03z"/>
  </g>
 </g>
</svg>
