<?xml version="1.0" encoding="UTF-8"?>
<!DOCTYPE svg PUBLIC "-//W3C//DTD SVG 1.1//EN" "http://www.w3.org/Graphics/SVG/1.1/DTD/svg11.dtd">
<!-- Creator: CorelDRAW 2020 (64 Bit) -->
<svg xmlns="http://www.w3.org/2000/svg" xml:space="preserve" width="54.1866mm" height="47.4132mm" version="1.1" style="shape-rendering:geometricPrecision; text-rendering:geometricPrecision; image-rendering:optimizeQuality; fill-rule:evenodd; clip-rule:evenodd"
viewBox="0 0 5472.08 4788.06"
 xmlns:xlink="http://www.w3.org/1999/xlink"
 xmlns:xodm="http://www.corel.com/coreldraw/odm/2003">
 <defs>
  <style type="text/css">
   <![CDATA[
    .fil0 {fill:#66BB6A;fill-rule:nonzero}
   ]]>
  </style>
 </defs>
 <g id="Camada_x0020_1">
  <metadata id="CorelCorpID_0Corel-Layer"/>
  <path class="fil0" d="M2736.04 0c-1511.23,0 -2736.04,995.01 -2736.04,2223.03 0,530.11 228.71,1015.33 609.2,1396.88 -133.59,538.66 -580.35,1018.53 -585.69,1023.88 -23.51,24.58 -29.92,60.91 -16.03,92.98 13.9,32.06 43.82,51.3 78.02,51.3 708.59,0 1239.77,-339.87 1502.68,-549.34 349.48,131.45 737.45,207.34 1147.86,207.34 1511.23,0 2736.04,-995.02 2736.04,-2223.03 0,-1228.01 -1224.81,-2223.03 -2736.04,-2223.03zm-1368.03 2565.03c-189.17,0 -342.01,-152.83 -342.01,-342.01 0,-189.18 152.83,-342.01 342.01,-342.01 189.18,0 342.01,152.83 342.01,342.01 0,189.18 -152.83,342.01 -342.01,342.01zm1368.03 0c-189.17,0 -342.01,-152.83 -342.01,-342.01 0,-189.18 152.83,-342.01 342.01,-342.01 189.18,0 342.01,152.83 342.01,342.01 0,189.18 -152.83,342.01 -342.01,342.01zm1368.03 0c-189.17,0 -342.01,-152.83 -342.01,-342.01 0,-189.18 152.83,-342.01 342.01,-342.01 189.18,0 342.01,152.83 342.01,342.01 0,189.18 -152.83,342.01 -342.01,342.01z"/>
 </g>
</svg>
