<?xml version="1.0" encoding="UTF-8"?>
<!DOCTYPE svg PUBLIC "-//W3C//DTD SVG 1.1//EN" "http://www.w3.org/Graphics/SVG/1.1/DTD/svg11.dtd">
<!-- Creator: CorelDRAW 2020 (64 Bit) -->
<svg xmlns="http://www.w3.org/2000/svg" xml:space="preserve" width="61.1982mm" height="54.3983mm" version="1.1" style="shape-rendering:geometricPrecision; text-rendering:geometricPrecision; image-rendering:optimizeQuality; fill-rule:evenodd; clip-rule:evenodd"
viewBox="0 0 1921.11 1707.65"
 xmlns:xlink="http://www.w3.org/1999/xlink"
 xmlns:xodm="http://www.corel.com/coreldraw/odm/2003"
 aria-hidden="true"
 focusable="false"
 data-prefix="fas"
 data-icon="star"
 role="img">
 <defs>
  <style type="text/css">
   <![CDATA[
    .fil3 {fill:#FEFEFE}
    .fil0 {fill:#6777EF}
    .fil2 {fill:white}
    .fil1 {fill:#FEFEFE;fill-rule:nonzero}
   ]]>
  </style>
 </defs>
 <g id="Camada_x0020_1">
  <metadata id="CorelCorpID_0Corel-Layer"/>
  <path class="fil0" d="M1899.49 1467.56c61.56,106.71 -15.71,240.1 -138.67,240.1l-1600.55 0c-123.2,0 -200.11,-133.59 -138.67,-240.1l800.28 -1387.56c61.59,-106.76 215.86,-106.57 277.34,0l800.26 1387.56z"/>
  <g id="star-solid.svg">
   <path class="fil1" d="M923.75 248.35l-83.76 169.81 -187.38 27.32c-33.6,4.87 -47.07,46.3 -22.7,70.03l135.57 132.11 -32.06 186.61c-5.77,33.73 29.76,59 59.51,43.22l167.63 -88.11 167.63 88.11c29.76,15.65 65.29,-9.49 59.51,-43.22l-32.06 -186.61 135.57 -132.11c24.37,-23.73 10.9,-65.16 -22.7,-70.03l-187.38 -27.32 -83.76 -169.81c-15.01,-30.27 -58.49,-30.65 -73.62,0z"/>
  </g>
  <g id="_1317727698000">
   <path class="fil2" d="M619.05 1071.46l46.56 0.11c0,75.42 0,366.4 0,418.86l130.96 0 -0.57 -418.65 45.92 -1.31c-33.64,-36.53 -84.02,-91.21 -116.94,-126.96l-105.94 127.94z"/>
   <polygon class="fil2" points="186.1,1598.77 857.06,1595.81 856.96,1531.95 185.62,1531.57 "/>
   <polygon class="fil2" points="454.87,1490.09 494.95,1491.97 545.97,1492.18 587.11,1491 587.04,1165.86 454.94,1167.98 "/>
   <polygon class="fil2" points="245.61,1492.01 377.38,1492.16 377.32,1260.05 245.61,1259.85 "/>
  </g>
  <path class="fil3" d="M1112.88 1350.54c0,-35.03 1.91,-57.51 16.91,-88.08 18.64,-38 48.37,-67.72 86.36,-86.36 66.16,-32.46 151.46,-18.74 205.35,35.16 3.78,3.78 6.47,6.28 10.2,10.12 7.32,7.54 21.16,30.01 26.09,39.95 39.8,80.12 11.58,175.55 -58.21,226.9 -59.82,44.01 -150.88,44.92 -209.07,1.44 -4.32,-3.22 -8.79,-5.83 -12.81,-9.2 -35.95,-30.22 -64.82,-82.09 -64.82,-129.92zm-252.32 -15.24c0,23.16 11.19,32.72 28.27,53.02l56.8 61.74c14.85,14.69 53.86,45.93 72.11,58.28 36.77,24.9 41.95,27.41 81.62,47.08 31.26,15.5 81.5,30.91 115.6,36.81 84.97,14.69 182.13,4.38 256.37,-28.89 19.35,-8.67 39.42,-17.32 57.84,-28.53 31.59,-19.22 73.06,-46.23 98.92,-72.11 12.04,-12.06 28.47,-24.64 44.04,-42.32l20.33 -23.7c8.14,-8.19 35.15,-40.24 35.15,-51.22 0,-18.15 -2.33,-21.14 -13.94,-35.17 -27.08,-32.74 -35.34,-44.19 -71.12,-79.59 -18.22,-18.03 -61.89,-52.11 -84.94,-67.47 -20.79,-13.86 -35.59,-20.18 -54.88,-31.49 -4.43,-2.6 -9.58,-4.26 -13.92,-6.41 -111.45,-55.25 -260.78,-57.75 -371.97,-7.92 -5.56,2.49 -9.89,4.06 -15.25,6.76 -5.68,2.87 -9.73,4.01 -15.25,6.77l-27.34 15c-38.19,23.23 -78.6,51.19 -110.83,82.21l-32.13 32.22c-12.77,14.5 -55.47,61.51 -55.47,74.92z"/>
  <path class="fil3" d="M1195.86 1335.3c0,40.75 12.9,63.14 40.38,84.93 42.58,33.76 116.2,21.82 145.95,-35.77 33.27,-64.42 -16.96,-142.3 -81.34,-142.3 -30.27,0 -56.21,7.01 -77.11,29.58 -2.79,3.02 -8.31,8.89 -10.26,11.76 -9.06,13.34 -17.63,34.33 -17.63,51.8z"/>
 </g>
</svg>
