<?xml version="1.0" encoding="UTF-8"?>
<!DOCTYPE svg PUBLIC "-//W3C//DTD SVG 1.1//EN" "http://www.w3.org/Graphics/SVG/1.1/DTD/svg11.dtd">
<!-- Creator: CorelDRAW 2020 (64 Bit) -->
<svg xmlns="http://www.w3.org/2000/svg" xml:space="preserve" width="47.4132mm" height="54.2866mm" version="1.1" style="shape-rendering:geometricPrecision; text-rendering:geometricPrecision; image-rendering:optimizeQuality; fill-rule:evenodd; clip-rule:evenodd"
viewBox="0 0 6045.58 6921.99"
 xmlns:xlink="http://www.w3.org/1999/xlink"
 xmlns:xodm="http://www.corel.com/coreldraw/odm/2003"
 aria-hidden="true"
 focusable="false"
 data-prefix="fas"
 data-icon="building"
 role="img">
 <defs>
  <style type="text/css">
   <![CDATA[
    .str0 {stroke:#6777EF;stroke-width:25.5;stroke-miterlimit:22.9256}
    .fil1 {fill:#FEFEFE;fill-rule:nonzero}
    .fil0 {fill:#6777EF;fill-rule:nonzero}
   ]]>
  </style>
 </defs>
 <g id="Camada_x0020_1">
  <metadata id="CorelCorpID_0Corel-Layer"/>
  <g id="building-solid.svg">
   <path class="fil0" d="M5883.64 6477.41l-269.88 0 0 -6153.54c0,-178.87 -145,-323.87 -323.87,-323.87l-4534.2 0c-178.87,0 -323.87,145 -323.87,323.87l0 6153.54 -269.88 0c-89.43,0 -161.94,72.5 -161.94,161.94l0 269.9 6045.58 0 0 -269.9c0,-89.43 -72.5,-161.94 -161.94,-161.94zm-4156.34 -5451.82c0,-89.43 72.5,-161.94 161.94,-161.94l539.78 0c89.43,0 161.94,72.5 161.94,161.94l0 539.78c0,89.43 -72.5,161.94 -161.94,161.94l-539.78 0c-89.43,0 -161.94,-72.5 -161.94,-161.94l0 -539.78zm0 1295.48c0,-89.43 72.5,-161.94 161.94,-161.94l539.78 0c89.43,0 161.94,72.5 161.94,161.94l0 539.78c0,89.43 -72.5,161.94 -161.94,161.94l-539.78 0c-89.43,0 -161.94,-72.5 -161.94,-161.94l0 -539.78zm701.72 1997.2l-539.78 0c-89.43,0 -161.94,-72.5 -161.94,-161.94l0 -539.78c0,-89.43 72.5,-161.94 161.94,-161.94l539.78 0c89.43,0 161.94,72.5 161.94,161.94l0 539.78c0,89.43 -72.5,161.94 -161.94,161.94zm1025.6 2159.14l-863.66 0 0 -1133.55c0,-89.43 72.5,-161.94 161.94,-161.94l539.79 0.01c89.43,0 161.94,72.5 161.94,161.94l0 1133.55 0 -0.01zm863.65 -2321.07c0,89.43 -72.5,161.94 -161.94,161.94l-539.78 0c-89.43,0 -161.94,-72.5 -161.94,-161.94l0 -539.78c0,-89.43 72.5,-161.94 161.94,-161.94l539.78 0c89.43,0 161.94,72.5 161.94,161.94l0 539.78zm0 -1295.48c0,89.43 -72.5,161.94 -161.94,161.94l-539.78 0c-89.43,0 -161.94,-72.5 -161.94,-161.94l0 -539.78c0,-89.43 72.5,-161.94 161.94,-161.94l539.78 0c89.43,0 161.94,72.5 161.94,161.94l0 539.78zm0 -1295.47c0,89.43 -72.5,161.94 -161.94,161.94l-539.78 -0.01c-89.43,0 -161.94,-72.5 -161.94,-161.94l0 -539.78c0,-89.43 72.5,-161.94 161.94,-161.94l539.78 0c89.43,0 161.94,72.5 161.94,161.94l0 539.78 0 0.01z"/>
  </g>
  <path class="fil1 str0" d="M4453.18 3796.48c-859.51,0 -1556.38,697.13 -1556.38,1556.38 0,859.75 696.87,1556.38 1556.38,1556.38 859.51,0 1556.38,-696.63 1556.38,-1556.38 0,-859.25 -696.87,-1556.38 -1556.38,-1556.38zm0 690.33c145.58,0 263.59,118.01 263.59,263.57 0,145.58 -118.01,263.59 -263.59,263.59 -145.58,0 -263.59,-118.01 -263.59,-263.59 0,-145.56 118.01,-263.57 263.59,-263.57zm351.44 1594.03c0,41.59 -33.71,75.32 -75.31,75.32l-552.26 0c-41.59,0 -75.31,-33.73 -75.31,-75.32l0 -150.61c0,-41.59 33.71,-75.31 75.31,-75.31l75.31 0 0 -401.65 -75.31 0c-41.59,0 -75.31,-33.73 -75.31,-75.31l0 -150.63c0,-41.59 33.71,-75.31 75.31,-75.31l401.65 0c41.59,0 75.31,33.71 75.31,75.31l0 627.57 75.31 0.01c41.59,0 75.31,33.71 75.31,75.31l0 150.61z"/>
 </g>
</svg>
