<?xml version="1.0" encoding="UTF-8"?>
<!DOCTYPE svg PUBLIC "-//W3C//DTD SVG 1.1//EN" "http://www.w3.org/Graphics/SVG/1.1/DTD/svg11.dtd">
<!-- Creator: CorelDRAW 2020 (64 Bit) -->
<svg xmlns="http://www.w3.org/2000/svg" xml:space="preserve" width="57.8612mm" height="55.9799mm" version="1.1" style="shape-rendering:geometricPrecision; text-rendering:geometricPrecision; image-rendering:optimizeQuality; fill-rule:evenodd; clip-rule:evenodd"
viewBox="0 0 5799.03 5610.48"
 xmlns:xlink="http://www.w3.org/1999/xlink"
 xmlns:xodm="http://www.corel.com/coreldraw/odm/2003">
 <defs>
  <style type="text/css">
   <![CDATA[
    .str0 {stroke:#FFA426;stroke-width:20.04;stroke-miterlimit:22.9256}
    .fil0 {fill:#FFA426}
   ]]>
  </style>
 </defs>
 <g id="Camada_x0020_1">
  <metadata id="CorelCorpID_0Corel-Layer"/>
  <path class="fil0 str0" d="M1495.75 2877.95c-138.11,-45.09 -269.01,-86.26 -407.31,-129.22 -77.99,-24.23 -338.78,-117.15 -403.29,-120.3l54.47 702.32c118.16,67.11 267.35,93.94 374.02,181.52 239.98,197.01 274.93,512.72 70.58,762.65 -114.75,140.32 -228.85,149 -353.35,192.53l34.04 428.17 1806.39 679.87 -38.24 -2334.99c-5.1,-2.71 -1053.73,-335.28 -1137.32,-362.57z"/>
  <path class="fil0 str0" d="M3173.04 3236.28l-44.05 2343.41 1805.87 -683.92 29.28 -428.61c-87.95,-31.86 -123.79,-27.24 -205.47,-74.32 -64.02,-36.89 -108.92,-74.77 -148.79,-123.61 -83.74,-102.55 -149.48,-238.23 -122.56,-420.54 55.93,-378.86 405.52,-422.23 570.94,-518.1l55 -702.3c-60.37,3.34 -732.09,224.65 -847.44,261.38l-1092.78 346.61z"/>
  <path class="fil0 str0" d="M1125.81 2525.32c32.72,27.24 745.05,259.86 856.84,297.07l643.06 217.14c69.97,23.58 501.4,21.41 560.34,2.43l1487.06 -516.6c-190,-92.77 -418.74,-180.04 -631.5,-251.13 -274.72,-91.81 -435.9,-123.2 -753.56,-123.2l-777.2 0c-324.26,0 -480.62,32.73 -761.54,125.95 -212.93,70.67 -435.75,157.39 -623.51,248.34z"/>
  <path class="fil0 str0" d="M602.95 3033.69c-29.45,0.97 -30.24,14.43 -67.65,56.52l-261.18 274.44c-23.68,26.94 -37.94,47.47 -63.54,73.23 -93.64,94.28 -196.34,191.33 -200.51,335.99 -7.62,264.57 214.84,333.82 384.18,405.14 122.75,51.69 266.51,131.81 420.74,103.45 345.51,-63.53 389.81,-471.77 177.33,-628.34 -83.9,-61.84 -249.92,-119.49 -360.11,-164.58l-29.26 -455.85z"/>
  <path class="fil0 str0" d="M5166.32 3489.69c-110.76,44.44 -285.15,106.89 -365.79,168.93 -207.65,159.77 -155.93,569.84 192.16,625.39 149.99,23.92 292.08,-54.51 411.97,-104.99 170.56,-71.82 406.09,-147.19 382.93,-425.84 -8.15,-98.05 -36.92,-122.82 -80.45,-182.03 -68.76,-93.57 -176.17,-191.37 -254.95,-280.82 -43.95,-49.92 -72.67,-84.78 -127.49,-135.16l-96.24 -104.1c-20.84,-19.19 -6.03,-16.49 -31.78,-17.33l-30.35 455.94z"/>
  <polygon class="fil0 str0" points="2784.06,5600.24 3019.36,5594.98 3059.01,3236.8 2742.94,3238.45 "/>
  <circle class="fil0 str0" cx="2874.55" cy="1021.33" r="1011.31"/>
 </g>
</svg>
