<?xml version="1.0" encoding="UTF-8"?>
<!DOCTYPE svg PUBLIC "-//W3C//DTD SVG 1.1//EN" "http://www.w3.org/Graphics/SVG/1.1/DTD/svg11.dtd">
<!-- Creator: CorelDRAW -->
<svg xmlns="http://www.w3.org/2000/svg" xml:space="preserve" width="2480px" height="2480px" version="1.1" style="shape-rendering:geometricPrecision; text-rendering:geometricPrecision; image-rendering:optimizeQuality; fill-rule:evenodd; clip-rule:evenodd"
viewBox="0 0 2480 2480"
 xmlns:xlink="http://www.w3.org/1999/xlink"
 xmlns:xodm="http://www.corel.com/coreldraw/odm/2003">
 <defs>
  <style type="text/css">
   <![CDATA[
    .fil0 {fill:#6777EF;fill-rule:nonzero}
   ]]>
  </style>
 </defs>
 <g id="Camada_x0020_1">
  <metadata id="CorelCorpID_0Corel-Layer"/>
  <path class="fil0" d="M2213.44 0.84l-1948.57 0c-146.72,0 -265.71,118.99 -265.71,265.72l0 1948.57c0,146.72 118.99,265.71 265.72,265.71l1948.56 0c146.72,0 265.72,-118.99 265.72,-265.72l0 -1948.56c0,-146.73 -119,-265.72 -265.72,-265.72zm-254.65 2125.73c-879.86,-101.6 -1605.35,-718.05 -1605.35,-1605.36 1.35,-38.17 27.49,-71.01 64.38,-80.88l359.83 -83.04c6.13,-1.29 12.4,-2.02 18.66,-2.15 32.68,1.64 61.93,20.93 76.33,50.32l166.07 387.5c4.05,10.42 6.34,21.52 6.71,32.71 -1.34,24.57 -12.3,47.67 -30.45,64.27l-209.74 171.61c126.92,269.23 343.99,486.31 613.25,613.26l171.61 -209.75c16.57,-18.18 39.68,-29.13 64.24,-30.48 11.2,0.36 22.28,2.64 32.72,6.7l387.5 166.07c29.4,14.38 49.04,43.64 50.32,76.35 0.24,6.25 0.09,12.83 -2.16,18.66 -65.35,169.11 -113.74,291.77 -148.75,378.89 -135.79,337.72 94.92,58.03 -15.17,45.32z"/>
 </g>
</svg>
