<?xml version="1.0" encoding="UTF-8"?>
<!DOCTYPE svg PUBLIC "-//W3C//DTD SVG 1.1//EN" "http://www.w3.org/Graphics/SVG/1.1/DTD/svg11.dtd">
<!-- Creator: CorelDRAW 2020 (64 Bit) -->
<svg xmlns="http://www.w3.org/2000/svg" xml:space="preserve" width="54.1866mm" height="43.3492mm" version="1.1" style="shape-rendering:geometricPrecision; text-rendering:geometricPrecision; image-rendering:optimizeQuality; fill-rule:evenodd; clip-rule:evenodd"
viewBox="0 0 5495.35 4396.27"
 xmlns:xlink="http://www.w3.org/1999/xlink"
 xmlns:xodm="http://www.corel.com/coreldraw/odm/2003"
 aria-hidden="true"
 focusable="false"
 data-prefix="fas"
 data-icon="project-diagram"
 role="img">
 <defs>
  <style type="text/css">
   <![CDATA[
    .fil0 {fill:#6777EF;fill-rule:nonzero}
   ]]>
  </style>
 </defs>
 <g id="Camada_x0020_1">
  <metadata id="CorelCorpID_0Corel-Layer"/>
  <g id="_1906727751744">
   <path class="fil0" d="M3297.21 2747.68l-1099.08 0c-151.73,0 -274.76,123.05 -274.76,274.76l0 1099.07c0,151.73 123.05,274.76 274.76,274.76l1099.08 0c151.73,0 274.76,-123.05 274.76,-274.76l0 -1099.07c0,-151.73 -123.05,-274.76 -274.76,-274.76zm-1648.61 -2472.91c0,-151.73 -123.05,-274.76 -274.76,-274.76l-1099.08 0c-151.72,0 -274.76,123.04 -274.76,274.76l0 1099.07c0,151.73 123.05,274.76 274.76,274.76l821.9 0 628.19 1099.41c95.31,-163.65 270.65,-275.11 473.28,-275.11l2.4 0 -551.93 -965.89 0 -407.94 1923.37 0 0 -549.54 -1923.37 0 0 -274.76zm3571.98 -274.76l-1099.07 0c-151.73,0 -274.76,123.05 -274.76,274.76l0 1099.07c0,151.73 123.05,274.76 274.76,274.76l1099.07 0c151.73,0 274.76,-123.05 274.76,-274.76l0 -1099.07c0,-151.73 -123.05,-274.76 -274.76,-274.76z"/>
  </g>
 </g>
</svg>
