<?xml version="1.0" encoding="UTF-8"?>
<!DOCTYPE svg PUBLIC "-//W3C//DTD SVG 1.1//EN" "http://www.w3.org/Graphics/SVG/1.1/DTD/svg11.dtd">
<!-- Creator: CorelDRAW 2020 (64 Bit) -->
<svg xmlns="http://www.w3.org/2000/svg" xml:space="preserve" width="49.1978mm" height="58.4571mm" version="1.1" style="shape-rendering:geometricPrecision; text-rendering:geometricPrecision; image-rendering:optimizeQuality; fill-rule:evenodd; clip-rule:evenodd"
viewBox="0 0 5081.72 6038.13"
 xmlns:xlink="http://www.w3.org/1999/xlink"
 xmlns:xodm="http://www.corel.com/coreldraw/odm/2003">
 <defs>
  <style type="text/css">
   <![CDATA[
    .str1 {stroke:#FEFEFE;stroke-width:20.66;stroke-miterlimit:22.9256}
    .str0 {stroke:#6777EF;stroke-width:20.66;stroke-miterlimit:22.9256}
    .fil1 {fill:#FEFEFE}
    .fil0 {fill:#6777EF}
    .fil4 {fill:#F5F8F9}
    .fil5 {fill:#FAFAFA}
    .fil2 {fill:#FAFDFD}
    .fil3 {fill:#FCFBFC}
   ]]>
  </style>
 </defs>
 <g id="Camada_x0020_1">
  <metadata id="CorelCorpID_0Corel-Layer"/>
  <path class="fil0 str0" d="M4301.6 135.12l-3910.11 0c-129.24,0 -234.96,105.73 -234.96,234.96l0 5312.91c0,129.23 105.72,234.96 234.96,234.96l3910.11 0 0 -5782.82z"/>
  <path class="fil0 str0" d="M4230.36 5809.22c-1095.44,47.55 -2294.44,2.08 -3401.62,2.86 -285.61,0.2 -589.46,69.16 -605.31,-249.85 -13.18,-265.4 0.24,-570.01 0.24,-839.82l-0.29 -3408.26c0.01,-1131.83 -124.24,-1086.43 605.36,-1086.07 1133.63,0.56 2268.09,-4.58 3405.96,0.37l-4.34 5580.77zm225.6 -5398.28c18.26,10.26 357.14,360.5 362.83,371.32 61.54,116.86 23.85,3355.35 23.85,3736.66 0,744.64 69.58,533.1 -227.68,912.83 -29.64,37.86 -123.5,149.8 -160.44,172.69l1.44 -5193.5zm-142.67 5616.85c132.78,0.01 305.78,-269.42 371.25,-349.75 504.63,-619.22 370.77,-289.29 370.77,-1718.7 0,-932.6 -0.01,-1865.21 -0.01,-2797.82 0,-639.53 7.03,-375.39 -463.05,-940.43 -207.29,-249.15 -216.73,-208.79 -507.85,-207.78l-3459.14 -0.11c-492.46,-1.05 -615.07,151.84 -614.78,639.63l-0.14 4781.74c0.2,462.38 159.82,593.03 589.5,592.87l3713.47 0.34z"/>
  <path class="fil0 str0" d="M660.03 2781.27c-39.24,-138.49 32.75,-148.46 133.15,-204.74l1063.37 -590.16c135.25,-75.18 297.62,-180.71 431.71,-236.77l81.32 149.55c-65.01,72.64 -1055.71,600.11 -1273.75,724.63 -128.89,73.61 -308.57,222.59 -435.8,157.49zm2764.78 -1043.51l38.88 85.08c-34.8,47.59 -689.02,418.65 -779.86,439.73l-42.2 -92.9 783.19 -431.91zm-1009.24 -220.14c86.24,-70.07 424.05,-256.04 531.65,-292.39 42.8,138.42 147.49,259.74 199.94,394.13 -84.15,74.92 -383.8,250.31 -520.61,294.52l-210.98 -396.26zm-287.97 -228.91c51.03,-50.76 696.47,-419.69 778.91,-427.91l37.79 71.82c-38.83,85.15 -262.74,180.65 -374.65,240.12 -128.18,68.14 -271.15,170.25 -393.19,213.53l-48.87 -97.57zm993.37 -146.45c28.45,-103.12 99.15,-143.39 36.86,-273.28 -188.94,-394 -293.1,-242.28 -690.72,-27.92 -143.95,77.61 -351.26,182.3 -492.05,271.09 -226.34,142.74 56.28,406.32 111.66,512.9 -123.27,40.4 -789.36,427.35 -957.04,523.61 -153.82,88.32 -314.22,177.29 -473.9,263.38 -466.93,251.7 -171.38,792.71 321.07,525.76l1403.4 -782.08c3.94,4.51 8.16,11.75 10.11,14.83 243.1,382.9 178.22,418.72 645.53,155.55 88.52,-49.85 146.85,-82.84 228.19,-127.62 393.94,-216.87 573.27,-236 323.76,-590.63 -72.58,-103.17 -111.42,-94.85 -252.29,-100.69l-214.59 -364.91z"/>
  <path class="fil1 str1" d="M4454.52 5604.45c36.95,-22.89 130.8,-134.84 160.44,-172.69 297.25,-379.73 227.68,-168.19 227.68,-912.83 0,-381.31 37.69,-3619.79 -23.85,-3736.66 -5.69,-10.82 -344.57,-361.07 -362.83,-371.32l-1.44 5193.5z"/>
  <path class="fil0 str0" d="M2535.93 2987.73c225.57,26.18 386.19,67.89 632.8,69.66 241.92,1.72 454.65,-59.52 651.99,-63.57l-4.28 211.2c-271.12,118.28 -997.93,103.56 -1272.03,3.41l-8.48 -220.7zm1199.46 -224.4c0.19,0.32 0.18,0.33 0,0 -55.6,27.24 -205.25,51.83 -273.53,67.03 -222.86,22.22 -653.88,24.12 -842.84,-56.24 353.84,-114.01 758.31,-70.11 1116.37,-10.78zm277.3 560.16c39.62,-56.79 30.43,-574.32 -5.11,-635.78 -152.31,-263.25 -1493.42,-259.35 -1653.4,-0.85 -48.95,79.1 -54.86,549.57 -2.76,639.79 64.66,111.96 342.65,143.23 500.32,156.22 277.92,22.89 1021.07,41.11 1160.95,-159.38z"/>
  <path class="fil2" d="M660.03 2781.27c127.22,65.1 306.91,-83.88 435.8,-157.49 218.04,-124.52 1208.74,-651.99 1273.75,-724.63l-81.32 -149.55c-134.08,56.06 -296.46,161.59 -431.71,236.77l-1063.37 590.16c-100.4,56.28 -172.39,66.25 -133.15,204.74z"/>
  <path class="fil3" d="M3816.44 3205.03l4.28 -211.2c-197.34,4.05 -410.07,65.29 -651.99,63.57 -246.61,-1.77 -407.23,-43.48 -632.8,-69.66l8.48 220.7c274.09,100.15 1000.91,114.87 1272.03,-3.41z"/>
  <path class="fil2" d="M2415.57 1517.62l210.98 396.26c136.81,-44.21 436.46,-219.6 520.61,-294.52 -52.45,-134.39 -157.14,-255.71 -199.94,-394.13 -107.6,36.35 -445.41,222.31 -531.65,292.39z"/>
  <path class="fil4" d="M2127.6 1288.71l48.87 97.57c122.04,-43.29 265,-145.39 393.19,-213.53 111.91,-59.48 335.82,-154.97 374.65,-240.12l-37.79 -71.82c-82.44,8.21 -727.89,377.15 -778.91,427.91z"/>
  <path class="fil5" d="M2619.03 2774.11c188.96,80.36 619.98,78.46 842.84,56.24 72.07,-14.23 215.68,-28.79 273.53,-67.03 -358.06,-59.33 -762.53,-103.23 -1116.37,10.78z"/>
  <path class="fil4" d="M2641.62 2169.67l42.2 92.9c90.84,-21.08 745.06,-392.15 779.86,-439.73l-38.88 -85.08 -783.19 431.91z"/>
  <rect class="fil1 str1" x="723.12" y="4231.62" width="3015.89" height="182.39" rx="69.96" ry="69.96"/>
  <rect class="fil1 str1" x="723.12" y="4668.91" width="3015.89" height="182.39" rx="69.96" ry="69.96"/>
  <rect class="fil1 str1" x="723.12" y="5106.19" width="3015.89" height="182.39" rx="69.96" ry="69.96"/>
 </g>
</svg>
